<?xml version="1.0" standalone="no"?>
<!DOCTYPE svg PUBLIC "-//W3C//DTD SVG 20010904//EN"
 "http://www.w3.org/TR/2001/REC-SVG-20010904/DTD/svg10.dtd">
<svg version="1.0" xmlns="http://www.w3.org/2000/svg"
 width="116.000000pt" height="116.000000pt" viewBox="0 0 116.000000 116.000000"
 preserveAspectRatio="xMidYMid meet">
<metadata>
Created by potrace 1.11, written by Peter Selinger 2001-2013
</metadata>
<g transform="translate(0.000000,116.000000) scale(0.100000,-0.100000)"
fill="#000000" stroke="none">
<path d="M90 1138 c-31 -16 -51 -36 -67 -67 -23 -44 -23 -45 -23 -487 0 -509
-1 -505 78 -555 l45 -29 456 0 c453 1 456 1 495 23 25 14 48 38 63 66 l23 44
0 446 c0 444 0 447 -22 491 -16 31 -36 51 -67 67 -44 23 -45 23 -490 23 -444
0 -447 0 -491 -22z m315 -65 c-15 -35 -21 -89 -19 -171 l1 -84 -36 7 c-20 4
-38 11 -39 16 -8 21 -35 39 -46 31 -15 -13 -46 -11 -46 2 0 6 -4 5 -9 -3 -5
-8 -7 -20 -4 -28 3 -7 -2 -13 -10 -13 -23 0 -31 -18 -16 -38 12 -14 10 -14 -8
1 -20 18 -21 18 -35 -2 -8 -11 -26 -25 -41 -30 l-27 -11 0 131 c0 141 11 182
53 199 12 5 82 9 156 9 123 1 133 0 126 -16z m248 6 c23 -10 38 -31 50 -70 5
-15 -28 -53 -46 -54 -13 0 -37 -37 -31 -46 3 -5 -2 -6 -10 -3 -13 5 -33 -29
-28 -48 1 -5 -3 -8 -8 -8 -5 0 -10 -18 -10 -39 l0 -39 -52 3 c-29 1 -56 3 -59
4 -9 2 -4 230 5 259 4 12 19 29 34 37 32 17 121 19 155 4z m388 -4 c38 -20 49
-50 49 -132 l0 -65 -49 51 c-44 46 -55 53 -77 50 -4 0 -10 5 -15 13 -6 9 -36
14 -93 16 -77 4 -84 6 -89 25 -2 12 -8 30 -12 40 -7 16 3 17 124 17 100 0 139
-4 162 -15z m-151 -99 c-7 -7 -13 -7 -20 0 -6 6 -3 10 10 10 13 0 16 -4 10
-10z m50 9 c0 -1 -10 -10 -22 -21 -14 -12 -18 -13 -10 -3 6 9 10 18 7 21 -3 2
2 5 10 5 8 0 15 -1 15 -2z m68 -39 c16 -20 16 -20 -2 -6 -24 19 -47 21 -66 7
-13 -10 -13 -10 -2 5 17 22 48 19 70 -6z m-193 -6 c-3 -5 -12 -10 -18 -10 -7
0 -6 4 3 10 19 12 23 12 15 0z m66 -15 c3 2 5 -6 5 -20 0 -13 -4 -21 -9 -18
-4 3 -6 8 -3 11 3 3 -2 15 -11 26 -14 15 -14 18 -2 8 9 -6 18 -10 20 -7z m107
-10 c-3 -3 -9 2 -12 12 -6 14 -5 15 5 6 7 -7 10 -15 7 -18z m-24 6 c3 -5 -2
-15 -12 -22 -15 -12 -16 -12 -5 2 7 9 10 19 6 22 -3 4 -4 7 0 7 3 0 8 -4 11
-9z m-165 -25 c9 -11 9 -16 -1 -22 -7 -4 -10 -4 -6 1 4 4 3 14 -3 22 -6 7 -9
13 -6 13 2 0 10 -6 16 -14z m126 -4 c-3 -3 -11 0 -18 7 -9 10 -8 11 6 5 10 -3
15 -9 12 -12z m65 4 c0 -2 -8 -10 -17 -17 -16 -13 -17 -12 -4 4 13 16 21 21
21 13z m41 -13 c13 -16 12 -17 -3 -4 -10 7 -18 15 -18 17 0 8 8 3 21 -13z
m-404 -10 c0 -9 -4 -10 -14 -2 -7 6 -13 12 -13 14 0 1 6 2 13 2 8 0 14 -6 14
-14z m386 -6 c3 -7 -3 -13 -14 -13 -13 0 -15 3 -7 13 6 7 12 13 13 13 2 0 5
-6 8 -13z m-203 -12 c-10 -12 -10 -18 1 -32 12 -17 12 -17 -6 -1 -15 14 -16
20 -5 32 7 9 15 16 17 16 3 0 0 -7 -7 -15z m56 -15 c0 -12 -4 -16 -9 -11 -5 5
-6 14 -3 20 10 15 12 14 12 -9z m196 5 c3 0 9 -3 13 -7 4 -3 0 -5 -9 -4 -9 1
-22 8 -29 16 -10 10 -9 11 3 4 8 -5 18 -9 22 -9z m-452 -9 c0 -2 -8 -10 -17
-17 -16 -13 -17 -12 -4 4 13 16 21 21 21 13z m-365 -14 c-3 -3 3 -15 12 -26
14 -15 14 -18 2 -8 -9 6 -20 8 -25 4 -5 -4 -6 -3 -2 2 4 5 3 14 -2 21 -7 8 -5
12 5 12 8 0 13 -3 10 -5z m43 -9 c-12 -15 -22 -18 -14 -4 4 5 0 11 -6 14 -7 3
-3 4 9 4 17 -1 19 -4 11 -14z m38 -19 c1 -9 0 -13 -4 -10 -3 4 -7 14 -8 22 -1
9 0 13 4 10 3 -4 7 -14 8 -22z m300 7 c0 -16 -3 -17 -14 -9 -12 10 -7 19 13
28 1 0 1 -9 1 -19z m50 -3 c12 -14 13 -18 3 -10 -9 6 -18 10 -21 7 -2 -3 -5 2
-5 10 0 19 0 19 23 -7z m240 0 c12 -14 13 -18 3 -10 -9 6 -18 10 -21 7 -2 -3
-5 2 -5 10 0 19 0 19 23 -7z m104 7 c-7 -8 -17 -15 -23 -15 -6 0 -2 7 9 15 25
19 30 19 14 0z m51 -2 c13 -16 12 -17 -3 -4 -10 7 -18 15 -18 17 0 8 8 3 21
-13z m-270 -10 c13 -16 12 -17 -3 -4 -10 7 -18 15 -18 17 0 8 8 3 21 -13z
m254 -13 c3 -6 -1 -7 -9 -4 -18 7 -21 14 -7 14 6 0 13 -4 16 -10z m-822 -90
c3 -14 0 -16 -17 -12 -19 5 -20 4 -6 -14 14 -18 14 -18 -6 -1 -11 9 -23 15
-26 12 -3 -3 -11 3 -19 12 -13 16 -12 17 4 4 14 -11 17 -11 17 2 0 21 47 19
53 -3z m347 4 c0 -8 5 -12 11 -9 6 4 5 -2 -3 -14 -11 -17 -11 -25 0 -42 9 -14
10 -19 2 -14 -9 6 -9 2 0 -14 6 -12 16 -18 22 -15 7 4 8 3 4 -5 -4 -6 -12 -9
-17 -6 -5 4 -10 -8 -10 -24 -1 -17 -2 -39 -2 -48 -1 -11 5 -17 13 -15 8 2 11
0 7 -4 -19 -19 -33 -10 -35 24 -3 43 -10 54 -25 46 -9 -5 -9 -4 0 6 9 10 8 22
-4 54 -9 22 -19 43 -22 46 -16 14 -10 39 11 43 43 8 48 7 48 -9z m-215 -32
c-3 -3 0 -11 6 -19 17 -20 5 -16 -14 5 -15 16 -15 19 -2 19 8 0 13 -3 10 -5z
m135 4 c0 -2 -8 -10 -17 -17 -16 -13 -17 -12 -4 4 13 16 21 21 21 13z m120 0
c0 -2 -8 -10 -17 -17 -16 -13 -17 -12 -4 4 13 16 21 21 21 13z m-429 -20 c14
8 11 -2 -4 -14 -10 -8 -13 -6 -14 11 0 12 1 16 4 9 3 -6 9 -10 14 -6z m480 -3
c8 -9 9 -14 2 -10 -6 4 -13 1 -16 -5 -3 -7 -4 -3 -4 10 1 26 1 26 18 5z m-382
4 c-2 -1 -13 -9 -24 -17 -19 -14 -19 -14 -6 3 7 9 18 17 24 17 6 0 8 -1 6 -3z
m231 -1 c0 -2 -8 -10 -17 -17 -16 -13 -17 -12 -4 4 13 16 21 21 21 13z m285
-14 c-3 -3 -11 0 -18 7 -9 10 -8 11 6 5 10 -3 15 -9 12 -12z m219 2 c3 -8 2
-12 -4 -9 -6 3 -10 10 -10 16 0 14 7 11 14 -7z m-804 -8 c0 -2 -8 -10 -17 -17
-16 -13 -17 -12 -4 4 13 16 21 21 21 13z m105 -16 c-10 -11 -20 -18 -23 -15
-3 3 -10 0 -17 -5 -8 -7 -12 -5 -12 4 0 8 8 13 18 11 10 -2 23 3 30 11 6 8 14
14 17 14 3 0 -3 -9 -13 -20z m636 3 c13 -16 12 -17 -3 -4 -10 7 -18 15 -18 17
0 8 8 3 21 -13z m-134 -6 c0 -8 -6 -14 -14 -14 -9 0 -10 4 -2 14 6 7 12 13 14
13 1 0 2 -6 2 -13z m76 0 c-4 -6 1 -8 11 -4 11 5 15 3 10 -5 -5 -8 -2 -9 9 -5
9 3 16 3 16 -1 -3 -20 3 -23 18 -11 11 10 14 10 9 2 -4 -8 -1 -13 9 -13 10 0
14 5 9 13 -6 10 -4 10 7 0 16 -16 49 -17 49 -2 0 5 5 7 10 4 6 -3 10 -1 10 4
0 6 5 11 10 11 13 0 13 -63 -1 -93 -17 -37 -45 -48 -132 -53 -74 -3 -82 -2
-96 19 -9 12 -18 40 -21 62 -4 35 -1 43 22 61 28 21 62 28 51 11z m-676 -12
c0 -8 -4 -12 -9 -9 -5 3 -6 10 -3 15 9 13 12 11 12 -6z m307 7 c3 -5 -1 -9 -9
-9 -8 0 -15 4 -15 9 0 4 4 8 9 8 6 0 12 -4 15 -8z m119 -4 c-4 -7 -8 -19 -9
-26 -2 -8 -5 -17 -8 -20 -9 -8 -2 30 7 46 5 6 10 12 13 12 3 0 2 -6 -3 -12z
m383 0 c3 -4 -1 -5 -10 -4 -8 1 -18 5 -22 8 -3 4 1 5 10 4 8 -1 18 -5 22 -8z
m-913 -12 c-3 -5 6 -7 21 -4 14 3 26 1 26 -3 0 -12 67 -11 75 1 4 6 12 4 22
-5 12 -13 18 -13 32 -3 14 12 15 11 2 -4 -7 -10 -10 -18 -6 -18 4 0 2 -6 -4
-13 -6 -8 -7 -18 -3 -22 4 -5 2 -5 -5 -1 -6 3 -14 2 -18 -4 -3 -5 -16 -10 -27
-10 -21 0 -21 0 -2 -22 12 -14 13 -18 3 -10 -9 6 -20 8 -24 4 -5 -4 -6 -2 -2
3 3 6 3 15 -1 20 -12 17 -82 45 -112 45 -26 0 -30 4 -30 29 0 25 4 28 29 27
16 -1 27 -5 24 -10z m682 -14 c-3 -3 -11 0 -18 7 -9 10 -8 11 6 5 10 -3 15 -9
12 -12z m-430 -12 c3 -6 -1 -7 -9 -4 -18 7 -21 14 -7 14 6 0 13 -4 16 -10z
m-14 -27 c13 -16 12 -17 -3 -4 -17 13 -22 21 -14 21 2 0 10 -8 17 -17z m447
-3 c-7 -10 -14 -17 -17 -15 -4 4 18 35 25 35 2 0 -1 -9 -8 -20z m-305 -5 c-3
-9 -8 -14 -10 -11 -3 3 -2 9 2 15 9 16 15 13 8 -4z m-358 -4 c3 -5 2 -12 -3
-15 -5 -3 -9 1 -9 9 0 17 3 19 12 6z m376 -14 c-10 -9 -11 -8 -5 6 3 10 9 15
12 12 3 -3 0 -11 -7 -18z m155 -5 c-17 -16 -18 -16 -5 5 7 12 15 20 18 17 3
-2 -3 -12 -13 -22z m-492 -1 c3 -5 -1 -14 -8 -20 -10 -9 -16 -9 -21 -1 -4 6
-1 9 7 8 7 -2 12 3 11 10 -3 14 3 16 11 3z m123 -23 c0 -13 -1 -17 -4 -10 -3
6 -9 10 -13 7 -5 -3 -12 0 -16 6 -4 7 -3 9 4 5 6 -3 13 -2 17 4 9 14 11 13 12
-12z m49 0 c12 -14 13 -18 3 -10 -9 6 -18 10 -21 7 -2 -3 -5 2 -5 10 0 19 0
19 23 -7z m191 9 c0 -8 -6 -14 -14 -14 -9 0 -10 4 -2 14 6 7 12 13 14 13 1 0
2 -6 2 -13z m-340 -101 c37 3 44 0 39 -13 -4 -8 -1 -23 6 -32 12 -14 11 -15
-5 -2 -23 18 -28 11 -35 -45 -3 -32 -1 -45 6 -40 6 3 8 -1 5 -12 -2 -10 6 -29
21 -45 14 -15 22 -27 18 -27 -4 -1 4 -10 17 -20 l23 -20 -51 0 c-51 0 -61 -6
-41 -26 7 -7 6 -11 -4 -11 -8 0 -13 4 -10 9 12 19 -15 6 -28 -13 -13 -21 -15
-21 -46 -5 -18 9 -37 28 -42 42 -6 14 -10 83 -10 153 l0 128 46 -12 c25 -6 66
-10 91 -9z m883 -106 c0 -144 -11 -183 -56 -200 -35 -14 -287 -13 -279 0 4 6
11 8 16 5 5 -4 12 0 15 9 3 8 11 13 18 10 6 -2 27 9 46 26 29 26 32 33 20 41
-13 9 -13 9 0 7 8 -2 15 2 15 7 0 6 -4 9 -8 7 -5 -1 -6 2 -2 7 3 6 13 7 22 4
12 -5 15 -2 10 10 -3 9 -3 17 2 17 11 0 13 102 2 132 l-10 26 55 -2 c29 -1 68
3 86 10 18 6 36 12 41 13 4 0 7 -58 7 -129z m-788 85 c2 3 5 -2 5 -10 0 -10
-4 -12 -12 -5 -7 5 -16 6 -21 2 -5 -4 -6 -3 -2 2 4 5 2 16 -4 25 -10 12 -7 12
8 -2 11 -9 23 -15 26 -12z m520 0 c2 3 5 -2 5 -10 0 -19 0 -19 -23 7 -12 14
-13 18 -3 10 9 -6 18 -10 21 -7z m-341 -12 c13 -16 12 -17 -3 -4 -17 13 -22
21 -14 21 2 0 10 -8 17 -17z m51 -10 c-6 -3 -9 -10 -5 -16 4 -7 -1 -6 -10 2
-21 17 -21 17 6 18 12 0 16 -1 9 -4z m153 -1 c-3 -3 0 -11 6 -19 17 -20 5 -16
-14 5 -15 16 -15 19 -2 19 8 0 13 -3 10 -5z m120 -10 c-3 -3 -11 0 -18 7 -9
10 -8 11 6 5 10 -3 15 -9 12 -12z m84 -16 c-3 -3 -11 5 -18 17 -13 21 -12 21
5 5 10 -10 16 -20 13 -22z m-563 9 c-1 -8 -5 -17 -8 -21 -5 -4 -4 16 1 34 3 9
9 -1 7 -13z m262 -10 c-3 -3 -9 2 -12 12 -6 14 -5 15 5 6 7 -7 10 -15 7 -18z
m-344 6 c3 -5 -2 -15 -12 -22 -15 -12 -16 -12 -5 2 7 9 10 19 6 22 -3 4 -4 7
0 7 3 0 8 -4 11 -9z m259 -11 c10 -12 9 -12 -4 -2 -9 6 -18 9 -21 6 -3 -3 -9
-1 -12 4 -9 15 22 8 37 -8z m57 16 c0 -2 -8 -10 -17 -17 -16 -13 -17 -12 -4 4
13 16 21 21 21 13z m289 1 c-2 -1 -13 -9 -24 -17 -19 -14 -19 -14 -6 3 7 9 18
17 24 17 6 0 8 -1 6 -3z m-194 -26 c-9 -8 -36 -10 -30 -2 2 4 11 8 20 8 8 0
13 -3 10 -6z m-72 -16 c-3 -9 -8 -14 -10 -11 -3 3 -2 9 2 15 9 16 15 13 8 -4z
m-258 -5 c3 -5 1 -10 -4 -10 -6 0 -11 5 -11 10 0 6 2 10 4 10 3 0 8 -4 11 -10z
m176 -13 c-10 -9 -11 -8 -5 6 3 10 9 15 12 12 3 -3 0 -11 -7 -18z m373 14 c-8
-9 -44 -11 -44 -3 0 4 11 8 25 8 13 0 22 -2 19 -5z m-344 -26 c-10 -12 -10
-18 1 -32 12 -17 12 -17 -6 -1 -15 14 -16 20 -5 32 7 9 15 16 17 16 3 0 0 -7
-7 -15z m66 -17 c12 -14 13 -18 3 -10 -9 6 -18 10 -21 7 -2 -3 -5 2 -5 10 0
19 0 19 23 -7z m264 7 c-7 -8 -17 -15 -23 -15 -6 0 -2 7 9 15 25 19 30 19 14
0z m-165 -5 c3 -6 -1 -7 -9 -4 -18 7 -21 14 -7 14 6 0 13 -4 16 -10z m116 -17
c13 -16 12 -17 -3 -4 -10 7 -18 15 -18 17 0 8 8 3 21 -13z m-551 1 c0 -8 -19
-13 -24 -6 -3 5 1 9 9 9 8 0 15 -2 15 -3z m387 0 c-3 -3 -12 -4 -19 -1 -8 3
-5 6 6 6 11 1 17 -2 13 -5z m38 -14 c10 -11 16 -20 13 -20 -3 0 -13 9 -23 20
-10 11 -16 20 -13 20 3 0 13 -9 23 -20z m205 16 c0 -2 -7 -7 -16 -10 -8 -3
-12 -2 -9 4 6 10 25 14 25 6z m-588 -18 c-14 -14 -44 -20 -36 -7 3 5 9 7 14 4
5 -3 11 -1 15 5 3 5 9 10 13 10 3 0 1 -5 -6 -12z m303 0 c5 4 5 1 1 -6 -6 -10
-11 -10 -22 -1 -8 6 -14 14 -14 16 0 3 6 0 13 -6 8 -6 18 -7 22 -3z m56 -15
c13 -16 12 -17 -3 -4 -15 11 -21 11 -35 0 -16 -13 -17 -12 -4 4 7 9 17 17 21
17 4 0 14 -8 21 -17z m-326 -12 c-9 -8 -36 -10 -30 -2 2 4 11 8 20 8 8 0 13
-3 10 -6z m515 -4 c0 -2 -8 -11 -18 -20 -15 -14 -19 -15 -19 -2 0 8 4 12 8 9
4 -2 10 0 14 6 6 10 15 14 15 7z m-170 -11 c0 -2 -8 -10 -17 -17 -16 -13 -17
-12 -4 4 13 16 21 21 21 13z m-110 -47 c0 -5 -5 -9 -12 -9 -6 0 -8 3 -5 7 4 3
1 13 -6 22 -11 14 -10 14 6 2 9 -7 17 -17 17 -22z m-66 -9 c-6 -6 -10 -3 -10
10 0 13 4 16 10 10 7 -7 7 -13 0 -20z m-174 10 c0 -5 -4 -10 -10 -10 -5 0 -10
5 -10 10 0 6 5 10 10 10 6 0 10 -4 10 -10z m317 -27 c0 -9 -4 -10 -14 -2 -7 6
-13 12 -13 14 0 1 6 2 13 2 8 0 14 -6 14 -14z"/>
</g>
</svg>
